PathFileType  4	(X/Y/Z) C:\Users\antoi\Documents\MyRepositories\mobilecap\ResultsAnalysis
DataRate	CameraRate	NumFrames	NumMarkers	Units	OrigDataRate	OrigDataStartFrame	OrigNumFrames
100.0	100.0	4	51	mm	100.0	331	1321
Frame#	Time	r_knee			r_shank_antsup			r_ankle			r_calc			r_5meta			r_toe			L_knee			L_shank_antsup			L_ankle			L_calc			L_5meta			L_toe			r_sh2			r_sh3			r_sh4			L_sh2			L_sh3			r_thigh1			r_thigh2			r_thigh3			r_thigh4			r_thigh5			L_thigh1			L_thigh2			L_thigh3			L_thigh4			r.ASIS			r.PSIS			L.ASIS			L.PSIS			C7			R_Shoulder			L_Shoulder			R_Sternum			L_Sternum			R_humerus			R_elbow_med			R_elbow_lat			R_forearm			R_wrist_radius			R_wrist_ulna			L_humerus			L_elbow_med			L_elbow_lat			L_forearm			L_wrist_radius			L_wrist_ulna			R_HJC			L_HJC			R_HJC_reg			L_HJC_reg			
		X1	Y1	Z1	X2	Y2	Z2	X3	Y3	Z3	X4	Y4	Z4	X5	Y5	Z5	X6	Y6	Z6	X7	Y7	Z7	X8	Y8	Z8	X9	Y9	Z9	X10	Y10	Z10	X11	Y11	Z11	X12	Y12	Z12	X13	Y13	Z13	X14	Y14	Z14	X15	Y15	Z15	X16	Y16	Z16	X17	Y17	Z17	X18	Y18	Z18	X19	Y19	Z19	X20	Y20	Z20	X21	Y21	Z21	X22	Y22	Z22	X23	Y23	Z23	X24	Y24	Z24	X25	Y25	Z25	X26	Y26	Z26	X27	Y27	Z27	X28	Y28	Z28	X29	Y29	Z29	X30	Y30	Z30	X31	Y31	Z31	X32	Y32	Z32	X33	Y33	Z33	X34	Y34	Z34	X35	Y35	Z35	X36	Y36	Z36	X37	Y37	Z37	X38	Y38	Z38	X39	Y39	Z39	X40	Y40	Z40	X41	Y41	Z41	X42	Y42	Z42	X43	Y43	Z43	X44	Y44	Z44	X45	Y45	Z45	X46	Y46	Z46	X47	Y47	Z47	X48	Y48	Z48	X49	Y49	Z49	X50	Y50	Z50	X51	Y51	Z51	

331	3.30000000	-250.07610	477.54685	-403.00975	-217.82234	416.04009	-395.14445	-282.93900	85.51734	-379.61480	-335.78670	53.12705	-423.62217	-175.03978	42.74779	-349.92640	-137.88358	64.84350	-401.84953	-229.96375	474.29279	-749.63127	-196.31759	388.54995	-747.43521	-279.75773	94.88222	-789.66719	-337.08771	52.83162	-748.81217	-180.00157	43.86414	-826.07306	-129.13204	58.76291	-773.08883	-238.45440	306.21697	-376.64199	-289.82142	434.24598	-376.77546	-317.95605	319.47555	-365.01362	-271.46146	418.43390	-788.00186	-288.80573	298.49605	-810.94007	-209.58793	734.01072	-373.01551	-202.29338	620.74807	-382.00818	-308.74148	610.95647	-409.01177	-320.68799	725.71315	-390.83157	-263.38198	594.47591	-382.06416	-194.14859	758.63169	-773.29420	-180.18841	620.18210	-759.14814	-305.29909	747.85474	-776.92974	-293.55813	612.46535	-744.90738	-170.64863	937.61736	-459.71063	-374.66692	945.69326	-540.53807	-166.08319	940.43262	-681.96149	-371.30526	945.50812	-621.85534	-283.67387	1395.08015	-570.51216	-222.46870	1367.69499	-427.16194	-220.78623	1365.83919	-713.30094	-152.17838	1340.04404	-550.95963	-158.30378	1335.56117	-585.55912	-166.88823	1276.72653	-360.93346	-133.82511	1057.99621	-348.23514	-110.55561	1091.05180	-292.58787	-17.24450	1108.95961	-292.32029	120.76089	1090.49594	-319.32615	118.04502	1056.78623	-300.85705	-181.26019	1275.88666	-784.86365	-109.12204	1061.17842	-785.56408	-98.59274	1099.16145	-842.02325	8.35887	1105.44657	-842.85801	132.77850	1097.66492	-817.05844	129.28213	1058.96070	-829.16667	-240.84097	842.22279	-470.03070	-234.68858	846.75756	-677.39727	-233.78574	864.02380	-492.63678	-227.72509	863.69110	-639.23926	
332	3.31000000	-247.42966	477.13225	-402.15031	-214.70095	415.45314	-394.53747	-283.01608	85.32842	-379.57928	-335.80897	53.08097	-423.61508	-175.06691	42.84889	-349.95903	-137.99212	65.08492	-401.99844	-227.21935	473.58606	-749.62482	-193.90397	387.63737	-747.57350	-279.65561	94.89835	-789.75935	-337.10012	52.74946	-748.75278	-179.99666	43.94538	-826.00947	-129.24324	59.10982	-773.31959	-236.22495	305.76935	-376.40260	-286.63412	433.84544	-375.79268	-315.39691	319.64586	-364.08125	-268.82491	418.00264	-788.27828	-286.83450	298.22221	-811.15604	-210.43196	734.04116	-372.72855	-201.72171	620.71391	-381.43419	-308.28894	610.14879	-407.67263	-321.36175	724.44528	-390.81199	-262.53767	593.84951	-381.36030	-194.96241	758.42812	-772.96186	-179.42429	619.92007	-758.84968	-306.03256	745.99858	-776.36718	-292.77943	610.95118	-745.28867	-172.75185	937.23935	-459.55879	-376.67515	946.70291	-540.25464	-168.31608	939.77635	-681.38996	-373.33824	946.26062	-621.53906	-281.69002	1395.33552	-570.20072	-220.52021	1367.66803	-427.00290	-219.07444	1365.78903	-712.81692	-150.64956	1339.56335	-550.73442	-156.82204	1335.07467	-585.43952	-165.19269	1276.76293	-360.69380	-132.69677	1058.05925	-347.50291	-109.16664	1091.07878	-292.18337	-15.86238	1108.49650	-292.58327	122.07173	1090.02210	-319.59094	119.37102	1056.44287	-301.14205	-179.70603	1275.98250	-784.45510	-108.18224	1061.23082	-786.34682	-97.44386	1098.96956	-841.62142	9.59815	1105.05416	-842.31144	133.90952	1096.82487	-816.32550	130.39160	1058.18057	-828.61456	-243.62115	842.34017	-469.56964	-237.45110	846.55931	-676.94245	-236.49053	864.37535	-492.18686	-230.48356	863.57958	-638.50880	
333	3.32000000	-244.54443	476.63655	-401.18506	-211.47011	414.86310	-393.82737	-283.00876	85.17802	-379.56649	-335.84159	53.04396	-423.61640	-175.10885	42.92997	-350.00809	-138.08141	65.27803	-402.07535	-224.60670	472.93506	-749.62430	-191.55495	386.81262	-747.86461	-279.58829	94.90934	-789.80677	-337.12468	52.69327	-748.71138	-179.99918	44.01198	-825.91487	-129.30253	59.24774	-773.27614	-233.85532	305.29615	-375.94868	-283.39203	433.45680	-374.54576	-312.61240	319.81623	-363.06643	-266.32922	417.61083	-788.56494	-285.05493	297.90480	-811.18231	-211.14129	733.92613	-372.37119	-201.08024	620.61492	-380.78925	-307.53726	609.01046	-406.35150	-321.97944	723.02760	-390.48069	-261.49692	593.24060	-380.45976	-195.83921	758.22792	-772.54606	-178.67822	619.79878	-759.05296	-306.84921	744.17787	-775.75154	-292.10763	609.25245	-745.41244	-174.96016	936.67714	-459.43971	-378.81546	947.74679	-539.98251	-170.63211	939.02923	-681.03542	-375.40386	947.14222	-621.14809	-279.57296	1395.49279	-569.90643	-218.36847	1367.54040	-426.96919	-217.17336	1365.63975	-712.47098	-148.99179	1338.90332	-550.47907	-155.17583	1334.39253	-585.17214	-163.31393	1276.69562	-360.51762	-131.29103	1058.01271	-347.12954	-107.63265	1090.97707	-291.79167	-14.33881	1108.09462	-292.60726	123.51180	1089.53959	-319.89517	120.82695	1056.05217	-301.40320	-178.03275	1275.98183	-783.98640	-107.03444	1061.02540	-787.18916	-96.18605	1098.76091	-841.49599	10.91851	1104.55867	-841.76170	135.16011	1095.95020	-815.48898	131.60801	1057.34943	-828.11187	-246.55759	842.34682	-469.22031	-240.44415	846.35622	-676.59889	-239.43216	864.48429	-491.97433	-233.28855	863.39537	-638.13041	
334	3.33000000	-241.48826	476.08199	-400.16344	-208.13218	414.16306	-393.21433	-282.91323	85.16883	-379.51811	-335.89296	52.99967	-423.60596	-175.16125	42.97881	-350.07177	-138.10685	65.46367	-402.01831	-222.16059	472.35000	-749.95773	-189.27033	385.90868	-748.22729	-279.55246	94.87033	-789.85325	-337.19282	52.61392	-748.68861	-180.01805	44.07059	-825.78926	-129.38278	59.37192	-773.18795	-231.30112	304.68985	-375.35158	-279.85294	433.02128	-373.29628	-309.81359	319.97713	-362.10534	-263.99188	417.16280	-788.92535	-283.52835	297.45700	-811.16012	-211.85766	733.65471	-372.10202	-200.35778	620.50580	-380.17136	-306.40292	607.48318	-405.27754	-322.62421	721.39315	-390.09293	-260.27242	592.45423	-379.49190	-196.76038	757.92606	-771.90431	-178.01967	619.76699	-759.47096	-307.77900	742.69172	-775.68654	-291.45049	607.62200	-745.42372	-177.35110	935.90360	-459.38594	-381.01043	948.81859	-539.72344	-173.03661	938.12873	-680.80779	-377.52782	948.17577	-620.81389	-277.26163	1395.54478	-569.71474	-216.04656	1367.26980	-426.92632	-215.06390	1365.41009	-712.28691	-147.17645	1338.18584	-550.29708	-153.36523	1333.53880	-584.84553	-161.27928	1276.48192	-360.48131	-129.83616	1057.60232	-346.73325	-105.95358	1090.70652	-291.50334	-12.63843	1107.76561	-292.47573	125.18376	1089.03953	-320.23827	122.46738	1055.52597	-301.63567	-176.13474	1275.83705	-783.67277	-105.66224	1060.37574	-786.91512	-94.75061	1098.48911	-841.53635	12.38672	1103.95731	-841.38140	136.55552	1095.03148	-814.59189	132.94485	1056.52953	-827.62189	-249.72331	842.22934	-468.98186	-243.66729	846.11447	-676.36450	-242.52966	864.31369	-491.94848	-236.25786	863.15594	-637.98276	
